<svg width="40" height="40" viewBox="0 0 40 40" fill="none" xmlns="http://www.w3.org/2000/svg">
<path d="M20.5191 15.4285V18.6897C20.2037 18.6977 19.9585 18.6882 19.6943 18.7072C16.1624 18.7773 12.8631 19.8139 10.0637 21.7073C9.07647 22.3506 8.15923 23.1006 7.3057 23.9525L5 21.65C6.00955 20.6356 7.10828 19.7424 8.25794 18.9907C11.5605 16.7582 15.4713 15.5289 19.5414 15.4509C19.7897 15.4301 20.1019 15.4285 20.5191 15.4285Z" fill="#202022"/>
<path d="M20.0033 21.9603C23.9237 21.9603 27.6084 23.4875 30.3823 26.2612L28.0766 28.5669C23.7581 24.2517 16.2453 24.2517 11.9331 28.5669L9.62744 26.2612C12.3981 23.4875 16.086 21.9603 20.0033 21.9603Z" fill="#202022"/>
<path d="M20.0031 28.4763C22.1751 28.4763 24.2228 29.3267 25.7674 30.8728L23.4617 33.1785C21.605 31.3218 18.4075 31.3185 16.5445 33.1785L14.2388 30.8728C15.7865 29.3266 17.8342 28.4763 20.0031 28.4763Z" fill="#202022"/>
<path d="M32.6943 16.7357L35 19.0414C33.9841 20.0574 32.8886 20.9507 31.7421 21.6991C28.3217 23.9842 24.344 25.2119 20.2516 25.239C20.0956 25.2629 19.8439 25.266 19.5127 25.2294L19.863 21.9874C19.9522 21.997 19.9776 21.997 20.0668 21.9874C23.6847 21.9556 27.0414 20.919 29.9426 18.9778C30.9173 18.3425 31.8377 17.5924 32.6943 16.7357Z" fill="#202022"/>
<path d="M28.0766 12.1116L30.3823 14.4173C27.6084 17.1912 23.9236 18.7182 20.0033 18.7182C16.0861 18.7182 12.3982 17.1911 9.62744 14.4173L11.9331 12.1116C16.2453 16.4269 23.7581 16.4269 28.0766 12.1116Z" fill="#202022"/>
<path d="M16.5446 7.5C18.4077 9.36308 21.6052 9.35994 23.4618 7.5L25.7675 9.80571C22.6847 12.8981 17.3408 12.9012 14.2388 9.80571L16.5446 7.5Z" fill="#202022"/>
</svg>
