<svg width="16" height="16" viewBox="0 0 16 16" fill="none" xmlns="http://www.w3.org/2000/svg">
<path d="M10.6666 5.33331C11.7275 5.33331 12.7449 5.75474 13.495 6.50489C14.2452 7.25503 14.6666 8.27245 14.6666 9.33331V14H11.9999V9.33331C11.9999 8.97969 11.8594 8.64055 11.6094 8.3905C11.3593 8.14046 11.0202 7.99998 10.6666 7.99998C10.313 7.99998 9.97383 8.14046 9.72378 8.3905C9.47373 8.64055 9.33325 8.97969 9.33325 9.33331V14H6.66659V9.33331C6.66659 8.27245 7.08801 7.25503 7.83816 6.50489C8.5883 5.75474 9.60572 5.33331 10.6666 5.33331Z" stroke="#202022" stroke-width="1.5" stroke-linecap="round" stroke-linejoin="round"/>
<path d="M3.99992 5.99998H1.33325V14H3.99992V5.99998Z" stroke="#202022" stroke-width="1.5" stroke-linecap="round" stroke-linejoin="round"/>
<path d="M2.66659 3.99998C3.40296 3.99998 3.99992 3.40303 3.99992 2.66665C3.99992 1.93027 3.40296 1.33331 2.66659 1.33331C1.93021 1.33331 1.33325 1.93027 1.33325 2.66665C1.33325 3.40303 1.93021 3.99998 2.66659 3.99998Z" stroke="#202022" stroke-width="1.5" stroke-linecap="round" stroke-linejoin="round"/>
</svg>
